<mxfile host="app.diagrams.net" modified="2024-06-30T10:28:12.046Z" agent="Mozilla/5.0 (Macintosh; Intel Mac OS X 10_15_7) AppleWebKit/605.1.15 (KHTML, like Gecko) Version/17.5 Safari/605.1.15" version="24.6.4" etag="PKNOzz3t4-4ny0bm4Ue4" type="github">
  <diagram name="Page-1" id="eto4T9cOr2kd_HI7sM_M">
    <mxGraphModel>
      <root>
        <mxCell id="0" />
        <mxCell id="1" parent="0" />
      </root>
    </mxGraphModel>
  </diagram>
</mxfile>
